<svg xmlns="http://www.w3.org/2000/svg" style="display: none" >
  <symbol id="icon-user" viewBox="0 0 48 48" fill="none" >
    <path d="M13.1628 13.2558C13.1628 16.241 14.3487 19.104 16.4595 21.2149C18.5704 23.3258 21.4334 24.5116 24.4186 24.5116C27.4038 24.5116 30.2668 23.3258 32.3777 21.2149C34.4885 19.104 35.6744 16.241 35.6744 13.2558C35.6744 10.2706 34.4885 7.40763 32.3777 5.29675C30.2668 3.18588 27.4038 2 24.4186 2C21.4334 2 18.5704 3.18588 16.4595 5.29675C14.3487 7.40763 13.1628 10.2706 13.1628 13.2558V13.2558Z" stroke="white" stroke-width="2" stroke-linecap="round" stroke-linejoin="round"></path>
    <path d="M6 46C6 41.1151 7.94053 36.4302 11.3947 32.9761C14.8488 29.5219 19.5337 27.5814 24.4186 27.5814C29.3035 27.5814 33.9884 29.5219 37.4425 32.9761C40.8967 36.4302 42.8372 41.1151 42.8372 46H6Z" stroke="white" stroke-width="2" stroke-linecap="round" stroke-linejoin="round"></path>

  </symbol>

  <symbol id="icon-search" viewBox="0 0 48 48" fill="none">
    <path d="M2 21.1304C2 26.2041 4.01552 31.07 7.60317 34.6577C11.1908 38.2453 16.0567 40.2609 21.1304 40.2609C26.2041 40.2609 31.07 38.2453 34.6577 34.6577C38.2453 31.07 40.2609 26.2041 40.2609 21.1304C40.2609 16.0567 38.2453 11.1908 34.6577 7.60317C31.07 4.01552 26.2041 2 21.1304 2C16.0567 2 11.1908 4.01552 7.60317 7.60317C4.01552 11.1908 2 16.0567 2 21.1304V21.1304Z" stroke="white" stroke-width="2" stroke-linecap="round" stroke-linejoin="round"></path>
    <path d="M46 46L34.6576 34.6576" stroke="white" stroke-width="2" stroke-linecap="round" stroke-linejoin="round"></path>
  </symbol>

  <symbol id="icon-cart" viewBox="0 0 48 48" fill="none">
    <path d="M7.84052 11.5652H43.4958C43.79 11.5652 44.0802 11.6329 44.3439 11.7633C44.6076 11.8936 44.8377 12.0831 45.0163 12.3168C45.1949 12.5506 45.3172 12.8223 45.3737 13.111C45.4301 13.3997 45.4193 13.6976 45.3419 13.9814L41.4144 28.379C41.0833 29.5936 40.362 30.6657 39.3615 31.4301C38.3611 32.1944 37.1371 32.6085 35.8781 32.6087H12.2711" stroke="white" stroke-width="2" stroke-linecap="round" stroke-linejoin="round"></path>
    <path d="M2 2H2.72313C3.60097 2.00005 4.45209 2.30195 5.13375 2.85508C5.8154 3.4082 6.28612 4.1789 6.46696 5.03791L12.8393 35.3099C13.0201 36.1689 13.4909 36.9396 14.1725 37.4927C14.8542 38.0459 15.7053 38.3478 16.5831 38.3478H38.3478" stroke="white" stroke-width="2" stroke-linecap="round" stroke-linejoin="round"></path>
    <path d="M12.5217 43.1304C12.5217 43.8915 12.8241 44.6214 13.3622 45.1595C13.9004 45.6977 14.6302 46 15.3913 46C16.1523 46 16.8822 45.6977 17.4204 45.1595C17.9585 44.6214 18.2609 43.8915 18.2609 43.1304C18.2609 42.3694 17.9585 41.6395 17.4204 41.1013C16.8822 40.5632 16.1523 40.2609 15.3913 40.2609C14.6302 40.2609 13.9004 40.5632 13.3622 41.1013C12.8241 41.6395 12.5217 42.3694 12.5217 43.1304V43.1304Z" stroke="white" stroke-width="2" stroke-linecap="round" stroke-linejoin="round"></path>
    <path d="M31.6522 43.1304C31.6522 43.8915 31.9545 44.6214 32.4926 45.1595C33.0308 45.6977 33.7607 46 34.5217 46C35.2828 46 36.0127 45.6977 36.5508 45.1595C37.089 44.6214 37.3913 43.8915 37.3913 43.1304C37.3913 42.3694 37.089 41.6395 36.5508 41.1013C36.0127 40.5632 35.2828 40.2609 34.5217 40.2609C33.7607 40.2609 33.0308 40.5632 32.4926 41.1013C31.9545 41.6395 31.6522 42.3694 31.6522 43.1304V43.1304Z" stroke="white" stroke-width="2" stroke-linecap="round" stroke-linejoin="round"></path>

  </symbol>

  <symbol id="icon-close" viewBox="0 0 48 48" fill="none">
    <path d="M46 2L2 46" stroke="white" stroke-width="2" stroke-linecap="round" stroke-linejoin="round"></path>
    <path d="M46 46L2 2" stroke="white" stroke-width="2" stroke-linecap="round" stroke-linejoin="round"></path>
  </symbol>

  <symbol id="icon-menu" viewBox="0 0 48 48" fill="none">
    <path d="M46 40H2" stroke="white" stroke-width="2" stroke-linecap="round" stroke-linejoin="round"></path>
    <path d="M46 24H2" stroke="white" stroke-width="2" stroke-linecap="round" stroke-linejoin="round"></path>
    <path d="M46 8H2" stroke="white" stroke-width="2" stroke-linecap="round" stroke-linejoin="round"></path>
  </symbol>
  <symbol id="icon-tiktok" viewBox="0 0 48 48" >
    <path d="M38.0766847,15.8542954 C36.0693906,15.7935177 34.2504839,14.8341149 32.8791434,13.5466056 C32.1316475,12.8317108 31.540171,11.9694126 31.1415066,11.0151329 C30.7426093,10.0603874 30.5453728,9.03391952 30.5619062,8 L24.9731521,8 L24.9731521,28.8295196 C24.9731521,32.3434487 22.8773693,34.4182737 20.2765028,34.4182737 C19.6505623,34.4320127 19.0283477,34.3209362 18.4461858,34.0908659 C17.8640239,33.8612612 17.3337909,33.5175528 16.8862248,33.0797671 C16.4386588,32.6422142 16.0833071,32.1196657 15.8404292,31.5426268 C15.5977841,30.9658208 15.4727358,30.3459348 15.4727358,29.7202272 C15.4727358,29.0940539 15.5977841,28.4746337 15.8404292,27.8978277 C16.0833071,27.3207888 16.4386588,26.7980074 16.8862248,26.3604545 C17.3337909,25.9229017 17.8640239,25.5791933 18.4461858,25.3491229 C19.0283477,25.1192854 19.6505623,25.0084418 20.2765028,25.0219479 C20.7939283,25.0263724 21.3069293,25.1167239 21.794781,25.2902081 L21.794781,19.5985278 C21.2957518,19.4900128 20.7869423,19.436221 20.2765028,19.4380839 C18.2431278,19.4392483 16.2560928,20.0426009 14.5659604,21.1729264 C12.875828,22.303019 11.5587449,23.9090873 10.7814424,25.7878401 C10.003907,27.666593 9.80084889,29.7339663 10.1981162,31.7275214 C10.5953834,33.7217752 11.5748126,35.5530237 13.0129853,36.9904978 C14.4509252,38.4277391 16.2828722,39.4064696 18.277126,39.8028054 C20.2711469,40.1991413 22.3382874,39.9951517 24.2163416,39.2169177 C26.0948616,38.4384508 27.7002312,37.1209021 28.8296253,35.4300711 C29.9592522,33.7397058 30.5619062,31.7522051 30.5619062,29.7188301 L30.5619062,18.8324027 C32.7275484,20.3418321 35.3149087,21.0404263 38.0766847,21.0867664 L38.0766847,15.8542954 Z" fill="white"></path>
  </symbol>
</svg>
